{
    "asset" : {
        "generator" : "Khronos glTF Blender I/O v1.6.16",
        "version" : "2.0"
    },
    "extensionsUsed" : [
        "KHR_materials_transmission"
    ],
    "scene" : 0,
    "scenes" : [
        {
            "name" : "Scene",
            "nodes" : [
                0,
                1,
                2,
                3,
                4,
                5,
                6,
                7,
                8
            ]
        }
    ],
    "nodes" : [
        {
            "mesh" : 0,
            "name" : "Sphere.002",
            "translation" : [
                0.1271335929632187,
                1.3322656154632568,
                0.0018716156482696533
            ]
        },
        {
            "mesh" : 1,
            "name" : "Sphere.001",
            "translation" : [
                0.10647045075893402,
                0.7145822048187256,
                -0.354941189289093
            ]
        },
        {
            "mesh" : 2,
            "name" : "Sphere.003"
        },
        {
            "mesh" : 3,
            "name" : "Sphere.004",
            "translation" : [
                0.22721335291862488,
                0.4314194917678833,
                -0.175611212849617
            ]
        },
        {
            "mesh" : 4,
            "name" : "Sphere.005",
            "translation" : [
                0.4965083599090576,
                0.027187377214431763,
                0.7296457886695862
            ]
        },
        {
            "mesh" : 5,
            "name" : "Sphere.006",
            "translation" : [
                0.2410036027431488,
                0.07610452175140381,
                -0.3016204833984375
            ]
        },
        {
            "mesh" : 6,
            "name" : "Sphere.007",
            "translation" : [
                0.27617037296295166,
                0.025828391313552856,
                0.13139863312244415
            ]
        },
        {
            "mesh" : 7,
            "name" : "Sphere.008",
            "translation" : [
                -0.31846559047698975,
                0.032876186072826385,
                0.3411635756492615
            ]
        },
        {
            "mesh" : 8,
            "name" : "Sphere.009",
            "translation" : [
                -0.22610917687416077,
                0.772864043712616,
                0.10072602331638336
            ]
        }
    ],
    "materials" : [
        {
            "doubleSided" : true,
            "extensions" : {
                "KHR_materials_transmission" : {
                    "transmissionFactor" : 1
                }
            },
            "name" : "Material.004",
            "pbrMetallicRoughness" : {
                "baseColorFactor" : [
                    0.800000011920929,
                    0.800000011920929,
                    0.800000011920929,
                    1
                ],
                "metallicFactor" : 0,
                "roughnessFactor" : 0.5
            }
        }
    ],
    "meshes" : [
        {
            "name" : "Sphere.003",
            "primitives" : [
                {
                    "attributes" : {
                        "POSITION" : 0,
                        "NORMAL" : 1,
                        "TEXCOORD_0" : 2
                    },
                    "indices" : 3
                }
            ]
        },
        {
            "name" : "Sphere.006",
            "primitives" : [
                {
                    "attributes" : {
                        "POSITION" : 4,
                        "NORMAL" : 5,
                        "TEXCOORD_0" : 6
                    },
                    "indices" : 7
                }
            ]
        },
        {
            "name" : "Sphere.008",
            "primitives" : [
                {
                    "attributes" : {
                        "POSITION" : 8,
                        "NORMAL" : 9,
                        "TEXCOORD_0" : 10
                    },
                    "indices" : 11,
                    "material" : 0
                }
            ]
        },
        {
            "name" : "Sphere.009",
            "primitives" : [
                {
                    "attributes" : {
                        "POSITION" : 12,
                        "NORMAL" : 13,
                        "TEXCOORD_0" : 14
                    },
                    "indices" : 3
                }
            ]
        },
        {
            "name" : "Sphere.010",
            "primitives" : [
                {
                    "attributes" : {
                        "POSITION" : 15,
                        "NORMAL" : 16,
                        "TEXCOORD_0" : 17
                    },
                    "indices" : 3
                }
            ]
        },
        {
            "name" : "Sphere.011",
            "primitives" : [
                {
                    "attributes" : {
                        "POSITION" : 18,
                        "NORMAL" : 19,
                        "TEXCOORD_0" : 20
                    },
                    "indices" : 3
                }
            ]
        },
        {
            "name" : "Sphere.012",
            "primitives" : [
                {
                    "attributes" : {
                        "POSITION" : 21,
                        "NORMAL" : 22,
                        "TEXCOORD_0" : 23
                    },
                    "indices" : 3
                }
            ]
        },
        {
            "name" : "Sphere.013",
            "primitives" : [
                {
                    "attributes" : {
                        "POSITION" : 24,
                        "NORMAL" : 25,
                        "TEXCOORD_0" : 26
                    },
                    "indices" : 3
                }
            ]
        },
        {
            "name" : "Sphere.014",
            "primitives" : [
                {
                    "attributes" : {
                        "POSITION" : 27,
                        "NORMAL" : 28,
                        "TEXCOORD_0" : 29
                    },
                    "indices" : 3
                }
            ]
        }
    ],
    "accessors" : [
        {
            "bufferView" : 0,
            "componentType" : 5126,
            "count" : 1937,
            "max" : [
                0.2101874202489853,
                0.06670376658439636,
                0.06670372933149338
            ],
            "min" : [
                -0.06670370697975159,
                -0.23947179317474365,
                -0.3031887710094452
            ],
            "type" : "VEC3"
        },
        {
            "bufferView" : 1,
            "componentType" : 5126,
            "count" : 1937,
            "type" : "VEC3"
        },
        {
            "bufferView" : 2,
            "componentType" : 5126,
            "count" : 1937,
            "type" : "VEC2"
        },
        {
            "bufferView" : 3,
            "componentType" : 5123,
            "count" : 9384,
            "type" : "SCALAR"
        },
        {
            "bufferView" : 4,
            "componentType" : 5126,
            "count" : 6336,
            "max" : [
                0.06656400859355927,
                0.06670376658439636,
                0.06656398624181747
            ],
            "min" : [
                -0.3366628587245941,
                -0.23947179317474365,
                -0.12622469663619995
            ],
            "type" : "VEC3"
        },
        {
            "bufferView" : 5,
            "componentType" : 5126,
            "count" : 6336,
            "type" : "VEC3"
        },
        {
            "bufferView" : 6,
            "componentType" : 5126,
            "count" : 6336,
            "type" : "VEC2"
        },
        {
            "bufferView" : 7,
            "componentType" : 5123,
            "count" : 9384,
            "type" : "SCALAR"
        },
        {
            "bufferView" : 8,
            "componentType" : 5126,
            "count" : 6082,
            "max" : [
                0.9995835423469543,
                2.3055286407470703,
                0.9989591240882874
            ],
            "min" : [
                -0.9995827674865723,
                -1,
                -0.9997919201850891
            ],
            "type" : "VEC3"
        },
        {
            "bufferView" : 9,
            "componentType" : 5126,
            "count" : 6082,
            "type" : "VEC3"
        },
        {
            "bufferView" : 10,
            "componentType" : 5126,
            "count" : 6082,
            "type" : "VEC2"
        },
        {
            "bufferView" : 11,
            "componentType" : 5123,
            "count" : 35112,
            "type" : "SCALAR"
        },
        {
            "bufferView" : 12,
            "componentType" : 5126,
            "count" : 1937,
            "max" : [
                0.2101874202489853,
                0.06670376658439636,
                0.06670372933149338
            ],
            "min" : [
                -0.06670370697975159,
                -0.23947179317474365,
                -0.3031887710094452
            ],
            "type" : "VEC3"
        },
        {
            "bufferView" : 13,
            "componentType" : 5126,
            "count" : 1937,
            "type" : "VEC3"
        },
        {
            "bufferView" : 14,
            "componentType" : 5126,
            "count" : 1937,
            "type" : "VEC2"
        },
        {
            "bufferView" : 15,
            "componentType" : 5126,
            "count" : 1937,
            "max" : [
                0.2101874202489853,
                0.06670376658439636,
                0.06670372933149338
            ],
            "min" : [
                -0.06670370697975159,
                -0.23947179317474365,
                -0.3031887710094452
            ],
            "type" : "VEC3"
        },
        {
            "bufferView" : 16,
            "componentType" : 5126,
            "count" : 1937,
            "type" : "VEC3"
        },
        {
            "bufferView" : 17,
            "componentType" : 5126,
            "count" : 1937,
            "type" : "VEC2"
        },
        {
            "bufferView" : 18,
            "componentType" : 5126,
            "count" : 1937,
            "max" : [
                0.2101874202489853,
                0.06670376658439636,
                0.06670372933149338
            ],
            "min" : [
                -0.06670370697975159,
                -0.23947179317474365,
                -0.3031887710094452
            ],
            "type" : "VEC3"
        },
        {
            "bufferView" : 19,
            "componentType" : 5126,
            "count" : 1937,
            "type" : "VEC3"
        },
        {
            "bufferView" : 20,
            "componentType" : 5126,
            "count" : 1937,
            "type" : "VEC2"
        },
        {
            "bufferView" : 21,
            "componentType" : 5126,
            "count" : 1937,
            "max" : [
                0.2101874202489853,
                0.06670376658439636,
                0.06670372933149338
            ],
            "min" : [
                -0.06670370697975159,
                -0.23947179317474365,
                -0.3031887710094452
            ],
            "type" : "VEC3"
        },
        {
            "bufferView" : 22,
            "componentType" : 5126,
            "count" : 1937,
            "type" : "VEC3"
        },
        {
            "bufferView" : 23,
            "componentType" : 5126,
            "count" : 1937,
            "type" : "VEC2"
        },
        {
            "bufferView" : 24,
            "componentType" : 5126,
            "count" : 1937,
            "max" : [
                0.2101874202489853,
                0.06670376658439636,
                0.06670372933149338
            ],
            "min" : [
                -0.06670370697975159,
                -0.23947179317474365,
                -0.3031887710094452
            ],
            "type" : "VEC3"
        },
        {
            "bufferView" : 25,
            "componentType" : 5126,
            "count" : 1937,
            "type" : "VEC3"
        },
        {
            "bufferView" : 26,
            "componentType" : 5126,
            "count" : 1937,
            "type" : "VEC2"
        },
        {
            "bufferView" : 27,
            "componentType" : 5126,
            "count" : 1937,
            "max" : [
                0.2101874202489853,
                0.06670376658439636,
                0.06670372933149338
            ],
            "min" : [
                -0.06670370697975159,
                -0.23947179317474365,
                -0.3031887710094452
            ],
            "type" : "VEC3"
        },
        {
            "bufferView" : 28,
            "componentType" : 5126,
            "count" : 1937,
            "type" : "VEC3"
        },
        {
            "bufferView" : 29,
            "componentType" : 5126,
            "count" : 1937,
            "type" : "VEC2"
        }
    ],
    "bufferViews" : [
        {
            "buffer" : 0,
            "byteLength" : 23244,
            "byteOffset" : 0
        },
        {
            "buffer" : 0,
            "byteLength" : 23244,
            "byteOffset" : 23244
        },
        {
            "buffer" : 0,
            "byteLength" : 15496,
            "byteOffset" : 46488
        },
        {
            "buffer" : 0,
            "byteLength" : 18768,
            "byteOffset" : 61984
        },
        {
            "buffer" : 0,
            "byteLength" : 76032,
            "byteOffset" : 80752
        },
        {
            "buffer" : 0,
            "byteLength" : 76032,
            "byteOffset" : 156784
        },
        {
            "buffer" : 0,
            "byteLength" : 50688,
            "byteOffset" : 232816
        },
        {
            "buffer" : 0,
            "byteLength" : 18768,
            "byteOffset" : 283504
        },
        {
            "buffer" : 0,
            "byteLength" : 72984,
            "byteOffset" : 302272
        },
        {
            "buffer" : 0,
            "byteLength" : 72984,
            "byteOffset" : 375256
        },
        {
            "buffer" : 0,
            "byteLength" : 48656,
            "byteOffset" : 448240
        },
        {
            "buffer" : 0,
            "byteLength" : 70224,
            "byteOffset" : 496896
        },
        {
            "buffer" : 0,
            "byteLength" : 23244,
            "byteOffset" : 567120
        },
        {
            "buffer" : 0,
            "byteLength" : 23244,
            "byteOffset" : 590364
        },
        {
            "buffer" : 0,
            "byteLength" : 15496,
            "byteOffset" : 613608
        },
        {
            "buffer" : 0,
            "byteLength" : 23244,
            "byteOffset" : 629104
        },
        {
            "buffer" : 0,
            "byteLength" : 23244,
            "byteOffset" : 652348
        },
        {
            "buffer" : 0,
            "byteLength" : 15496,
            "byteOffset" : 675592
        },
        {
            "buffer" : 0,
            "byteLength" : 23244,
            "byteOffset" : 691088
        },
        {
            "buffer" : 0,
            "byteLength" : 23244,
            "byteOffset" : 714332
        },
        {
            "buffer" : 0,
            "byteLength" : 15496,
            "byteOffset" : 737576
        },
        {
            "buffer" : 0,
            "byteLength" : 23244,
            "byteOffset" : 753072
        },
        {
            "buffer" : 0,
            "byteLength" : 23244,
            "byteOffset" : 776316
        },
        {
            "buffer" : 0,
            "byteLength" : 15496,
            "byteOffset" : 799560
        },
        {
            "buffer" : 0,
            "byteLength" : 23244,
            "byteOffset" : 815056
        },
        {
            "buffer" : 0,
            "byteLength" : 23244,
            "byteOffset" : 838300
        },
        {
            "buffer" : 0,
            "byteLength" : 15496,
            "byteOffset" : 861544
        },
        {
            "buffer" : 0,
            "byteLength" : 23244,
            "byteOffset" : 877040
        },
        {
            "buffer" : 0,
            "byteLength" : 23244,
            "byteOffset" : 900284
        },
        {
            "buffer" : 0,
            "byteLength" : 15496,
            "byteOffset" : 923528
        }
    ],
    "buffers" : [
        {
            "byteLength" : 939024,
            "uri" : "data:application/octet-stream;base64,"
        }
    ]
}
